<svg xmlns="http://www.w3.org/2000/svg" width="500" height="500" viewBox="0 0 500 500"><circle cx="250" cy="250" r="250" style="fill:#0032a0"/><path d="M136,206.347H114.571v45.48c-18.775-16.837-37.51-33.674-56.744-50.48v92.306H79.255v-45.48c17.878,15.868,37.072,33.674,56.755,50.48Zm47.52,87.275H162.092V206.347H183.52Zm55.541,5c-15.183-28.571-30.388-61.4-45.571-92.306h24.122L239.041,253.6l20.632-47.286h23.633c-14.714,30.99-29.469,63.694-44.214,92.337Zm112.01-73.2H314.806V240.48h36.306v19.04H314.806v14.97h36.306v19.041H293.357V206.286h57.755Zm54.449-24.071c-14.744,29.1-29.489,60.48-44.234,92.306h22.387l4.46-10.459h34.908l4.479,10.459h23.194C435.429,261.827,420.245,230,405.52,201.347Zm-11.112,65.469,11.112-25.387,10.735,25.387Z" style="fill:#fff"/></svg>