<?xml version="1.0" encoding="iso-8859-1"?>
<!-- Uploaded to: SVG Repo, www.svgrepo.com, Generator: SVG Repo Mixer Tools -->
<svg version="1.1" id="Layer_1" xmlns="http://www.w3.org/2000/svg" xmlns:xlink="http://www.w3.org/1999/xlink" 
	 viewBox="0 0 512 512" xml:space="preserve">
<g>
	<path style="fill:#FDE5A2;" d="M147.607,493.836l30.233-30.249l60.466,12.077h108.838l66.854-66.838
		c6.873-6.873,6.673-18.132-0.599-24.749c-6.811-6.199-17.418-5.596-23.929,0.916l-42.326,42.328l-78.605-18.139l-24.186-24.186
		c-26.716-26.716-70.03-26.715-96.746,0l-54.42,54.419L147.607,493.836z"/>
	<path style="fill:#FDE5A2;" d="M332.935,408.472l-64.642,0.484v34.206l64.899-0.486c9.445-0.072,17.045-7.786,16.973-17.231
		S342.379,408.4,332.935,408.472z"/>
</g>
<path style="fill:#F2C127;" d="M268.292,428.633v14.527l64.899-0.713c8.195-0.062,15.23-5.264,16.84-13.815h-81.739V428.633z"/>
<g>
	<path style="fill:#FDD042;" d="M413.98,384.641l-72.884,72.853H232.259l-61.724-16.803c-2.961-0.807-6.127,0.049-8.297,2.219
		l-32.77,32.779l18.14,18.143l30.233-30.246l60.466,12.08h108.838l66.854-66.854C420.675,402.133,420.656,391.32,413.98,384.641z"/>
	<circle style="fill:#FDD042;" cx="256.534" cy="43.836" r="25.653"/>
</g>
<path style="fill:#F2C127;" d="M273.637,60.934c-14.168,0-25.653-11.485-25.653-25.653c0-6.528,2.442-12.483,6.457-17.01
	c-13.187,1.067-23.559,12.099-23.559,25.562c0,14.168,11.485,25.653,25.653,25.653c7.64,0,14.496-3.343,19.196-8.643
	C275.039,60.898,274.342,60.934,273.637,60.934z"/>
<path style="fill:#E5563C;" d="M256.534,83.381c-127.513,0-230.881,103.369-230.881,230.881h461.762
	C487.415,186.75,384.047,83.381,256.534,83.381z"/>
<path style="fill:#CF442B;" d="M273.637,84.012c-5.647-0.414-11.35-0.632-17.102-0.632c-127.513,0-230.881,103.369-230.881,230.881
	h34.205C59.858,192.503,154.112,92.764,273.637,84.012z"/>
<circle style="fill:#F58F6C;" cx="419.006" cy="237.306" r="25.653"/>
<rect x="8.551" y="314.266" style="fill:#88898E;" width="495.967" height="25.653"/>
<path d="M418.795,378.157c-9.93-9.036-25.3-8.522-34.995,1.173l-30.75,30.944c-4.606-5.856-11.749-9.431-19.747-9.431
	c-0.063,0-0.128,0-0.192,0l-61.502,0.268l-21.59-21.686c-14.434-14.435-33.627-22.434-54.041-22.434s-39.607,7.926-54.041,22.361
	l-54.42,54.407c-2.919,2.919-3.113,7.733-0.426,10.872c2.997,3.501,8.503,3.717,11.763,0.457l54.419-54.421
	c11.406-11.407,26.573-17.691,42.704-17.691s31.297,6.283,42.704,17.689l24.186,24.186c2.056,2.054,4.948,2.945,7.578,2.301
	l62.784-0.279c0.023,0,0.046,0,0.069,0c4.978,0,9.047,3.836,9.085,8.823c0.038,5.01-4.007,9.019-9.017,9.057l-64.663,0.438
	c-4.427,0.033-7.989,3.577-7.956,8.004c0.033,4.407,3.616,7.883,8.016,7.883c0.02,0,0.041,0,0.062,0l64.662-0.437
	c13.15-0.099,23.888-10.315,24.853-23.204l36.797-36.785c3.569-3.57,9.34-3.857,12.865-0.647c3.79,3.449,3.957,9.532,0.326,13.161
	l-12.434,12.436c-3.131,3.131-3.131,8.207,0,11.338c3.13,3.132,8.206,3.131,11.337,0.001l12.436-12.436
	c4.831-4.832,7.51-11.522,7.349-18.354C426.853,389.225,423.933,382.833,418.795,378.157z"/>
<path d="M365.661,446.093l-21.839,22.09H239.098l-59.687-12.189c-2.627-0.526-5.346,0.172-7.241,2.066l-30.233,30.17
	c-2.919,2.919-3.113,7.709-0.426,10.846c2.997,3.501,8.503,3.704,11.763,0.445l27.199-27.208l56.258,11.499
	c0.517,0.104,1.044,0.403,1.572,0.403h108.839c2.126,0,4.164-1.096,5.668-2.6l24.188-24.31c3.131-3.132,3.131-8.144,0-11.276
	C373.868,442.901,368.792,442.963,365.661,446.093z"/>
<path d="M504.518,306.779h-9.233c-1.982-60.927-26.301-117.242-69.016-160.365c-3.117-3.145-8.193-3.303-11.337-0.187
	c-3.146,3.116-3.169,8.392-0.055,11.538c39.723,40.103,62.408,92.363,64.381,149.014H33.812
	C38.05,187.063,136.332,91.665,256.534,91.665c47.931,0,93.599,14.849,132.065,43.193c3.564,2.626,8.584,1.8,11.21-1.765
	c2.626-3.565,1.866-8.617-1.698-11.244c-38.28-28.208-83.21-44.076-130.551-46.21c13.166-4.577,22.646-17.102,22.646-31.807
	c0-18.566-15.105-33.67-33.67-33.67s-33.67,15.105-33.67,33.67c0,14.707,9.482,27.234,22.651,31.809
	c-59.674,2.717-115.392,27.456-157.908,69.971c-43.226,43.227-67.832,100.241-69.823,161.168H8.551
	c-4.427,0-8.551,3.054-8.551,7.482v25.653c0,4.428,4.124,8.551,8.551,8.551h495.967c4.427,0,7.482-4.123,7.482-8.551v-25.653
	C512,309.834,508.945,306.779,504.518,306.779z M238.898,43.832c0-9.725,7.912-17.637,17.637-17.637
	c9.725,0,17.637,7.912,17.637,17.637s-7.912,17.637-17.637,17.637C246.81,61.468,238.898,53.556,238.898,43.832z M495.967,332.433
	H16.033v-9.62h479.933V332.433z"/>
<path d="M239.432,211.648c4.427,0,7.482-4.123,7.482-8.551v-34.205c0-4.428-3.055-7.482-7.482-7.482h-34.205
	c-4.427,0-8.017,3.588-8.017,8.017s3.589,8.017,8.017,8.017h25.653v18.171h-25.653c-4.427,0-8.551,3.054-8.551,7.482v34.205
	c0,4.428,4.124,8.551,8.551,8.551h34.205c4.427,0,8.017-3.588,8.017-8.017c0-4.428-3.589-8.017-8.017-8.017H212.71v-18.171H239.432z
	"/>
<path d="M264.551,160.875c-4.427,0-8.017,3.588-8.017,8.017v42.756c0,4.428,4.124,8.551,8.551,8.551h17.102v17.102
	c0,4.428,3.589,8.017,8.017,8.017c4.427,0,8.017-3.588,8.017-8.017v-17.102h9.62c4.427,0,8.017-3.588,8.017-8.017
	s-3.589-8.017-8.017-8.017h-9.62v-18.171c0-4.428-3.589-8.017-8.017-8.017c-4.427,0-8.017,3.588-8.017,8.017v18.171h-9.62v-35.273
	C272.568,164.465,268.979,160.875,264.551,160.875z"/>
<path d="M350.063,143.773c0-4.428-3.589-8.017-8.017-8.017h-25.653c-4.427,0-8.551,3.054-8.551,7.482v25.653
	c0,4.428,3.589,8.017,8.017,8.017c4.427,0,8.017-3.588,8.017-8.017v-3.211c6.413,11.393,9.887,24.14,9.887,37.416
	c0,42.731-34.63,77.495-77.361,77.495s-77.429-34.764-77.429-77.495s34.798-77.495,77.528-77.495c4.427,0,8.034-3.588,8.034-8.017
	s-3.581-8.017-8.008-8.017c-51.572,0-93.524,41.956-93.524,93.528s41.958,93.528,93.53,93.528s93.529-41.689,93.529-93.261
	c0-18.668-5.417-36.61-15.688-51.574h7.673C346.473,151.79,350.063,148.202,350.063,143.773z"/>
</svg>